<svg id="Layer_1" data-name="Layer 1" xmlns="http://www.w3.org/2000/svg" viewBox="0 0 1364.79 570.94"><title>glomarlogo</title><path d="M703.12,316.7l31,84.78,32.53-84.93h67.58V435.94l1.18.38L887.6,316.51h54.46C960,357,978,397.79,996.55,439.81V316.41c21,0,41.74,0,62.45,0,12.48,0,24.92,0,37.19,2.81,33.08,7.52,36.46,40,22.26,57.85a38.83,38.83,0,0,1-14.61,11c14.06,21.53,20.26,46.36,31.63,69.6h-49.63c-4.55-12-9-24-13.68-35.94-5.8-14.88-11.47-18.26-28.56-17v52.89H952.79c-3.76-9.39-7.61-19-11.51-28.68H886.59c-4,9.43-8.05,18.95-12.2,28.72H788.28V366.3L753.4,457.83H711.83L679,367.56v90H633.2V316.7Zm340.63,56c9.88-.31,19.41,1.1,28.59-2.22,4.46-1.61,6.31-5.13,6.81-9.57.48-4.18-1.2-7-4.93-9.11-9.65-5.36-20-4.59-30.47-4.25Zm-145,24.12H929c-4.74-13.63-9.41-27.1-14.53-41.83C908.94,369.7,903.92,383.08,898.79,396.79Z" transform="translate(-1.59 -1.39)" style="fill:#010101"/><path d="M1167.42,246.22l-81.52-67.54h105.82c11.75-38.75,23.43-77.25,35.41-116.77,11.94,39.33,23.63,77.84,35.38,116.57h103.88l-84,67.74c12.09,35.61,24.06,70.85,36.45,107.33l-91.74-63-90.61,63Z" transform="translate(-1.59 -1.39)" style="fill:#010101"/><path d="M470.63,424.55v33.16H359.75V316.77h46.69v108h63.43a91,91,0,0,1-8.55-39c.11-40.24,25.77-67.41,65.88-70.55,17-1.33,33.65-.93,49.94,4.1,26.9,8.32,44.19,31.72,45.46,59.93,1,22.24-3.07,42.65-18.76,59.48-4.5,4.83-10.09,8.28-16,11.19-23.1,11.4-47.5,13.1-72,7.14C497.8,452.68,481,444.81,470.63,424.55Zm39.31-40c-.06,11.08,1.07,19.8,5.71,27.66a30.48,30.48,0,0,0,50.11,4c11.49-13.82,11.84-44.36.67-58.4-8.34-10.47-28.09-14.69-37.48-9.14C514.15,357.37,509.75,370.7,509.94,384.52Z" transform="translate(-1.59 -1.39)" style="fill:#010101"/><path d="M335.9,293c-1.79,15.7-3.41,29.91-5.11,44.86-13.9-7.79-28.47-12.11-44.15-12.45-19.29-.42-38,1.55-54.75,12.35C212,350.6,206.73,380.83,220.76,399.9c6.31,8.58,14.42,13.81,24.21,17.05,11.51,3.8,23.1,6.7,35.39,4.49,3.53-.63,5.77-1.8,5.63-6-.23-7-.06-14-.06-21.19H257.22V356.74H340v95.6c-12.35,3.17-25,6.48-38.06,7.35-23.5,1.56-47.18,3.6-70.32-2-21.06-5.08-41.4-12.51-56.53-29.38-20.16-22.49-23.58-49-17.29-77.2,5-22.27,18.21-38.76,38.81-48.84C241.63,280.24,288.29,284.07,335.9,293Z" transform="translate(-1.59 -1.39)" style="fill:#010101"/><path d="M970.78,125l30-99.05,29.93,98.64h87.71l-70.84,57.24,30.72,90.74-77.51-53.31-76.64,53.32c7.85-27.25,15.12-53.49,23.09-79.52,2.45-8,2-12.81-5.41-18.49-20.31-15.66-39.63-32.6-60-49.57Z" transform="translate(-1.59 -1.39)" style="fill:#010101"/><path d="M812,94.2h80.57l-65.09,52.59,28.3,83.5-71.35-49.1-70.54,49.14c8.15-28.32,16.06-55.77,24-83.52L674.57,94.26h82.24C766,64,775.05,34.09,784.37,3.32,793.69,34,802.79,64,812,94.2Z" transform="translate(-1.59 -1.39)" style="fill:#010101"/><path d="M530.51,178.41l17.93-64.18L498.38,72.72h65.18c7.13-23.53,14.2-46.86,21.62-71.33,7.45,24.6,14.52,47.92,21.6,71.25h63.86l-51.55,41.7c7.18,21.24,14.49,42.85,22.23,65.76-18.15-12.48-35.12-24.07-52-35.81-2.89-2-5-2.4-8.14-.15-16.59,11.79-33.38,23.28-50.11,34.88A8.36,8.36,0,0,0,530.51,178.41Z" transform="translate(-1.59 -1.39)" style="fill:#010101"/><path d="M472.9,182.05l-44.16-29.73-45.27,31.25c5.1-17.92,9.7-34.36,14.54-50.73.79-2.67,0-3.85-1.92-5.41-12.41-10.09-24.71-20.31-38.22-31.45h53.19c5.88-19.35,11.68-38.42,17.77-58.47,6.09,20,11.89,39.1,17.78,58.49h51.95L456.7,129.84c5.71,17.28,11.34,34.29,17,51.31Z" transform="translate(-1.59 -1.39)" style="fill:#010101"/><path d="M274.38,543.15c1.1-2.92,1.86-4.9,2.65-7,15.87-1.28,16.55-15.15,21-25.69,3-7.09,9.34-9.52,16.62-4.92l-3,7.52c2.92.66,4.43-1.67,6.05-3.3a19,19,0,0,1,16.36-5.7c5.27.61,6.17,4.45,4.94,10.42,5.85-4.62,10-9.33,16.43-10.18,4.41-.59,9-1.31,12.06,2.64,2.87,3.67-.11,7-1.68,10.31-2.68,5.54-5.46,11-8.46,17.09,5.58,2.2,10.44,1.75,15.33.33.19-20.89,23.93-35.89,44.75-28.5,4.06-4.35,10.53-4.38,15.9.26-3.95,9.48-12.81,16.7-14,28.16,4.62,2.28,9.31,1.11,14,0-2-18.78,23.39-35.89,44.16-29.6,2.21-4.34,4.51-8.8,6.74-13.3,2.07-4.14,3.37-9,8.41-10.62,3.94-1.29,8.54-1.81,11.52,1.07,3.17,3-1.32,5.37-2.62,7.85-6.86,13.13-16.13,25-21,39.18-.48,1.44-.75,2.94-1.22,4.8,6.27,3.38,12.28,1.38,18.36.65C489,514.32,508.36,501.1,526.24,504c8.4,1.36,11.52,9.21,6.86,16.72a41.45,41.45,0,0,1-6,7.59c-2.18,2.15-4.89,3.77-7.72,5.88,3.5,2.36,7.31,1.18,11.08,1.78l-2.91,6.84c-2.94-.14-6.11.43-8.72-.52-14.6-5.32-29.07,2.67-43.61.1-4.68-.83-8.42-2-8.53-8-8.77,7.48-17.79,9.2-29.21,7.06-7.44-1.39-16,2.46-24.3,1-4.42-.76-7.21-2.63-7.33-8.05-8.95,7.81-18.34,9.89-29.95,7.32-6.08-1.35-13.27,1.65-20.24.87-13.53-1.51-15.63-5.19-9.07-17.36,1.73-3.22,4.61-5.86,5.24-10.8-10.4,5.19-16.85,13.28-22.12,22.29-4.31,7.36-10.21,6.6-17.77,4.76,4.9-9.16,9.52-17.8,15.19-28.38-11.08,4.74-17.68,11.12-22.11,19.35s-9,13.11-19.25,9C282.89,540.32,278.69,542.42,274.38,543.15Zm139.7-29c-9.68-2.51-22.32,5-25.77,14.67-.58,1.63-2,3.52-.07,5.16,1.62,1.39,3.51.86,5.31.27C403.67,530.94,407.74,521.75,414.08,514.16Zm34.34,18.73c6.86,3.49,16.67-4.39,23.91-19.23C461.89,512.35,449.13,522.62,448.42,532.89Zm76.63-18.65c-4.43-3.29-7.86-1.46-10.88,1.56-3.86,3.87-4.85,8.3-1.78,13.67C517.37,524.85,523.42,521.81,525.05,514.24Z" transform="translate(-1.59 -1.39)" style="fill:#040404"/><path d="M268.22,211.08l13.64-44.9-35-28.94H292l15.51-50.9c5.44,17.81,10.42,34.13,15.5,50.79h44.33L331.52,166c4.82,14.36,9.61,28.56,14.28,42.79.24.74,1.71,1.81.08,2.73l.08-.13-39-26.41c-9.15,9-21.5,14-31.3,22.66-1.93,1.72-4.07,4.38-7.49,3.48Z" transform="translate(-1.59 -1.39)" style="fill:#010101"/><path d="M165.75,249.6c3.54-12.66,6.92-25.38,10.72-38,1.05-3.47.23-5.44-2.39-7.54-9.88-7.88-19.64-15.9-30.2-24.48h43.68c4.82-15.86,9.57-31.53,14.44-47.58l14.31,47.26h43.23c-11,8.75-20.66,16.72-30.66,24.26-3.43,2.59-4.25,4.9-2.79,8.92,4.41,12.22,8.47,24.56,12.67,36.85l-.8.64L201.9,225.81,166.39,250.3C166.18,250.06,166,249.83,165.75,249.6Z" transform="translate(-1.59 -1.39)" style="fill:#040404"/><path d="M79.49,291.78l9.44-34L61.65,235.09H97.17c3.93-12.91,7.82-25.67,12-39.43l12,39.24h35.1c-8.84,7.07-16.72,13.62-24.9,19.78-2.89,2.17-3.42,4.05-2.21,7.36,3.7,10.12,7.07,20.35,10.87,31.41-11-6.82-21.06-13.25-30.21-20.76L80.16,292.6Z" transform="translate(-1.59 -1.39)" style="fill:#040404"/><path d="M772.61,533.51c3,2.88,6.61,2,10.53,2.49l-2.72,6.7c-18.94,2.9-25.13-3.18-21-22-4.32,4.52-7.5,8.58-11.39,11.78-9,7.42-19.14,12.29-31.32,10-6.92-1.3-8.62-5.53-5.64-11.66,5.08-10.43,10.35-20.77,15.47-31.2,1.32-2.71,3.52-6,.63-8.46a8.47,8.47,0,0,0-10.54-.22c-5.49,4.43-13.71,8.46-7.09,18.08,1.16,1.7-.44,3-2.43,3.58-3.73,1.06-7.49.68-10.07-1.94a11.7,11.7,0,0,1-2.83-12c2.89-9.84,13.42-17.2,26.29-18.14,2.18-.16,4.38-.18,6.56-.14,16.18.23,21.52,9.23,14.18,23.61-4.77,9.34-9.29,18.81-14.11,28.58,5.1.86,8.46-1.38,11.36-3.78,14.37-11.89,26.14-25.86,33.34-43.32,2.41-5.85,10.58-8.07,15.6-4.34,2.42,1.79,1,3.79.33,5.85Q780.33,508.69,773,530.5A14,14,0,0,0,772.61,533.51Z" transform="translate(-1.59 -1.39)" style="fill:#040404"/><path d="M54,346.25,24.63,366.19c3.1-10.79,5.51-20.25,8.59-29.49,1.38-4.14.52-6.41-2.82-9-7.26-5.51-14.93-10.59-21.54-18.17H42.45C46.27,297,50,284.91,54,271.82c3.93,12.9,7.61,25,11.38,37.42H98.48c-7,8.18-15.46,13.3-23.21,19.21-3,2.27-3.28,4.2-2.12,7.39,3.52,9.7,6.81,19.48,10.63,30.46Z" transform="translate(-1.59 -1.39)" style="fill:#040404"/><path d="M16.8,456.22c3.29-11.43,6.18-21.46,9-31.18-7.09-8-15.75-13.44-24.18-20.58H33.13L44,368.89l10.91,35.33h31C77.31,411.69,68.26,417,61,425L71.6,456.18,44.05,438.27Z" transform="translate(-1.59 -1.39)" style="fill:#040404"/><path d="M913,530.31c-8.22,5.94-15.85,11.18-25.46,12.42-7.21.93-14.06.33-18.49-5.89-4.16-5.84-2.36-12.38.95-18A54.42,54.42,0,0,1,879.8,506a102.29,102.29,0,0,1,55.37-26.3c4.53-.66,7.91,1.76,9.16,6.87a11.55,11.55,0,0,1-3.17,1.31c-23.41,2.42-40.37,15.56-54.61,33.06-2.41,3-5,6.82-2.27,10.63,2.88,4.08,7.56,2.77,11.16,1.19,11.06-4.89,19-13.62,26.09-23.06,4.25-5.68,7.31-12.24,11.42-18,3.21-4.53,7.87-2.89,11.7-.85s1.18,4.77-.21,7.2c-5.16,9-10.59,17.88-15.29,27.12-4.85,9.53-4.28,10.21,5.69,11-1,2.34-1.85,4.58-2.71,6.69C918.22,544.66,912,540.89,913,530.31Z" transform="translate(-1.59 -1.39)" style="fill:#040404"/><path d="M856.22,496.46c-1.29-7.41-7-8.28-12.65-8.32-6.81,0-13.82.36-17.84,7.19-2.17,3.69.74,5.75,3.4,7.49,5.24,3.41,11.54,4.45,16.8,8.21,9.68,6.93,11.6,13.36,5.31,24.16l6,.92L854.33,543c-12.31-4.69-20.68,7.74-32.5,7.54-11.09-.18-22.31,1.51-32-5.84-3.61-2.74-5.42-6.31-3.85-10.56,1.69-4.53,6.08-5.54,10.37-5.83,12-.79,23.48,2.22,35.09,4.29,3.64.64,7,1.11,8.3-3.3,1.17-3.93.66-7.5-3.59-9.43-4.94-2.23-10-4.28-14.88-6.54-5.84-2.68-10-7-10.18-13.62-.15-7,3.39-12.12,9.81-15,12.53-5.63,25.38-7,38.46-2.16,4.08,1.52,7,4.45,5.94,9.31C864.29,496.42,860.52,496.5,856.22,496.46Zm-27.78,42.92c-11.76-1.37-21-4.55-31.07-3.32C800.82,541.94,814.78,543.6,828.44,539.38Z" transform="translate(-1.59 -1.39)" style="fill:#040404"/><path d="M574,538.39c-5.19,3.17-10.26,4.72-16.26,4.16.86-2.22,1.62-4.19,2.45-6.32,14.61-1.45,17.16-13.73,20.8-24.3,2.74-7.95,8.27-8.77,14.61-7.85,5.19.75,2.65,4.64,1.39,7.16-3.73,7.48-7.93,14.73-10.31,22.76,6,4,15.65,1.06,19-5.94a150.83,150.83,0,0,0,6.47-15.42c3.32-9.32,6.76-11.12,16.69-7.89.67,3.84-2.23,6.65-3.81,11.6,3.66-2.89,6.15-5,8.73-6.89,5.69-4.28,12-6.56,19.07-4.58,5.37,1.52,4.9,5.71,3,9.8-3,6.57-7.59,12.43-9.37,19.53,2.16,2.35,4.9,1.12,7.68,1.82-.9,2.2-1.78,4.37-2.87,7.05-7-1.93-17.07,2.6-19.4-7.49-1.66-7.22,5.43-13.33,8.7-20.81-7.63,2-12.47,6.69-16.68,12-3,3.74-5.24,8-7.88,12a8.27,8.27,0,0,1-8.54,3.8c-8.29-1.74-16.49,1.18-24.73-.17C579.5,541.9,576.38,541.34,574,538.39Z" transform="translate(-1.59 -1.39)" style="fill:#040404"/><path d="M122.66,476.76c-7.31,6.59-15.46,10.76-21.3,17.87,2.86,8.55,5.74,17.14,9.12,27.22L86.82,505.51,63.4,521.92l7.8-27.34c-5.75-6.84-13.55-11.39-20.84-17.71h27.2c3-10.06,6-19.8,9.24-30.47C90,457,93,466.79,96.09,476.76Z" transform="translate(-1.59 -1.39)" style="fill:#040404"/><path d="M145.82,529.11h25.33c-6.48,5-12,9.42-17.7,13.53-2.48,1.77-2.94,3.3-1.86,6.18,2.7,7.19,5,14.55,8,23.51-8.48-6-15.49-11-22.74-16.2l-22.47,16.18c2.63-9.15,4.5-16.17,6.69-23.09.91-2.87.76-4.7-1.94-6.64-5.56-4-10.79-8.41-17-13.31h25.65l9-29.45C140.06,510.38,142.89,519.59,145.82,529.11Z" transform="translate(-1.59 -1.39)" style="fill:#040404"/><path d="M1198.36,457h-5.31V444.09l-1.1-.16c-1.21,4.3-2.42,8.61-3.66,13h-4.79l-3.33-12.14-1,.08v11.93h-5.65V431h8.5l4,15.41c1.74-6.4,2.94-10.83,4.19-15.45h8.16Z" transform="translate(-1.59 -1.39)" style="fill:#040404"/><path d="M1148.7,436.23l-4.8-.67V431H1159v4.64l-4.56.56V456.9l-5.73.26Z" transform="translate(-1.59 -1.39)" style="fill:#040404"/><path d="M596.52,494.5c-4.59.14-7.84-1.62-7.68-6.53.19-5.8,4.55-7.26,9.39-7.53,3.93-.22,7.77,1,7.69,5.47C605.82,491.49,602,494.24,596.52,494.5Z" transform="translate(-1.59 -1.39)" style="fill:#040404"/><path d="M473.67,181.15l1.71,2.83-2.48-1.93Z" transform="translate(-1.59 -1.39)" style="fill:#010101"/><path d="M531.09,179l-1,.22c.14-.28.29-.55.44-.83A8.36,8.36,0,0,1,531.09,179Z" transform="translate(-1.59 -1.39)" style="fill:#010101"/><path d="M80.16,292.6l-1.13.22.46-1Z" transform="translate(-1.59 -1.39)" style="fill:#040404"/><path d="M238.76,249.33l.05,1.16L238,250Z" transform="translate(-1.59 -1.39)" style="fill:#040404"/><path d="M166.39,250.3l-1.09.26.45-1C166,249.83,166.18,250.06,166.39,250.3Z" transform="translate(-1.59 -1.39)" style="fill:#040404"/><path d="M345.88,211.48l.67-.18-.09.61c-.17-.19-.33-.38-.5-.56Z" transform="translate(-1.59 -1.39)" style="fill:#010101"/><path d="M268.21,211.08h0c.53.37.27.18,0,0Z" transform="translate(-1.59 -1.39)" style="fill:#010101"/></svg>