<?xml version="1.0" encoding="utf-8"?>
<!-- Generator: Adobe Illustrator 22.0.1, SVG Export Plug-In . SVG Version: 6.00 Build 0)  -->
<svg version="1.1" id="Layer_1" xmlns="http://www.w3.org/2000/svg" xmlns:xlink="http://www.w3.org/1999/xlink" x="0px" y="0px"
	 viewBox="0 0 1467 597" style="enable-background:new 0 0 1467 597;" xml:space="preserve">
<style type="text/css">
	.st0{fill:#010101;}
</style>
<g>
	<path d="M727.1,386.7c0,17.6,0,34.9,0,52.1c0,11,0.1,22,0.4,33c0.1,3-0.4,4.3-4,4.2c-14-0.2-28-0.2-42,0c-2.8,0-3.6-0.7-3.6-3.5
		c0.1-45.3,0.1-90.7,0-136c0-2.8,0.7-3.6,3.6-3.6c22.7,0.1,45.3,0.1,68,0c2.6,0,3.6,0.9,4.5,3.3c9.6,25.3,19.4,50.5,29.1,75.7
		c0.8,2,1.7,3.9,2.7,6.3c2.7-3.5,3.6-7.1,5-10.5c9.6-23.5,19-47.1,28.4-70.7c1.1-2.9,2.5-4,5.7-4c21.3,0.2,42.7,0.2,64,0
		c3.7,0,4.2,1.2,4.2,4.5c-0.1,37.5-0.1,75-0.1,112.5c0,1.6,0,3.1,0,4.7c0.3,0.1,0.6,0.1,0.9,0.2c3.6-7.8,7.3-15.7,10.9-23.5
		c14.4-31.5,28.9-63,43.2-94.6c1.3-2.8,2.9-3.8,6-3.8c16.2,0.2,32.3,0.2,48.5,0c3.9-0.1,5.8,1.1,7.4,4.6
		c17.7,38.4,35.6,76.7,53.4,115c0.6,1.3,1.3,2.5,2.7,4.9c0-3.1,0-4.7,0-6.3c0-37.5,0.1-75-0.1-112.5c0-4.3,0.7-5.8,5.5-5.8
		c25.2,0.3,50.3-0.1,75.5,0.2c12.6,0.1,25.2,1.4,36.8,7.1c12.7,6.3,20.5,15.8,20.5,30.8c0,15.3-6.6,26.5-20.5,32.9
		c-3.8,1.7-4.4,2.7-1,5.6c3.2,2.7,4.8,6.7,6.5,10.5c7.7,17.7,15.5,35.4,23.2,53c0.3,0.7,0.6,1.5,1,2.4c-1.5,1-3,0.6-4.4,0.6
		c-14.2,0-28.3-0.1-42.5,0.1c-4.1,0.1-6-1-7.5-5c-4.3-11.8-8.3-23.7-13.9-34.9c-5.9-11.8-13.3-15.5-26.3-14.2
		c-3.4,0.3-2.5,2.5-2.5,4.2c-0.1,15-0.1,30,0.1,45c0,3.7-0.7,5-4.8,5c-29.3-0.2-58.7-0.2-88,0c-3.5,0-4.9-1.1-6.1-4.1
		c-2.8-7.2-6.1-14.3-8.9-21.5c-1-2.5-2.1-3.6-5-3.5c-17.2,0.1-34.3,0.1-51.5,0c-2.6,0-3.8,1-4.7,3.2c-3.2,7.6-6.8,15-10,22.6
		c-0.9,2.2-1.9,3.3-4.6,3.3c-28.5-0.1-57-0.1-85.5,0c-3.4,0-3.6-1.3-3.6-4.1c0.1-28.8,0-57.6,0-86.7c-2.2,3.1-3.2,6.9-4.6,10.4
		c-10.3,25.5-20.6,51-30.7,76.6c-1.1,2.7-2.2,3.8-5.2,3.7c-12.2-0.2-24.3-0.2-36.5,0c-3.4,0.1-4.8-0.9-6-4.1
		c-10.4-27.5-20.9-54.8-31.4-82.2C728.6,388.7,728.4,387.7,727.1,386.7z M1116.1,377.3c0,3.3,0,6.6,0,10c0,1.3-0.3,2.8,1.8,2.8
		c9.4-0.3,18.9,1.1,28.1-2.1c5.8-2,7.8-5.1,8-10.5c0.3-5.9-3.5-8.2-8.1-9.8c-5.5-1.9-11.3-2.4-17-2.6
		C1116.1,364.7,1116.1,364.7,1116.1,377.3z M994.1,415c-5.2-14-10.2-27.6-15.7-42.5c-5.9,14.9-11.3,28.4-16.9,42.5
		c9.5,0,18.3,0,27.1,0C990.3,415,991.9,415,994.1,415z"/>
	<path d="M1160.9,194c20.8,0,40.2,0,59.7,0c16.5,0,33-0.1,49.5,0.1c3.2,0,4.5-0.8,5.5-4c11.7-37.1,23.6-74.1,35.5-111.2
		c0.1-0.4,0.3-0.8,0.9-2.3c2.9,8.6,5.5,16.3,8,24.1c9.5,29.8,19,59.6,28.3,89.5c1,3.3,2.8,4,6.1,4c35-0.1,70-0.1,106.3-0.1
		c-6.1,4.7-11.4,8.8-16.7,12.8c-22.9,17.5-45.6,35-68.6,52.3c-3.4,2.5-4.1,4.4-2.6,8.4c12.1,33.1,23.9,66.4,35.8,99.6
		c0.3,0.9,0.9,1.8,0.4,3.3c-12.3-8-24.5-15.9-36.7-23.8c-18.8-12.2-37.6-24.3-56.3-36.7c-3.1-2-4.9-1.9-7.9,0.1
		c-29,19.3-58.2,38.4-87.2,57.6c-1.4,0.9-2.8,1.8-5.2,3.3c1.8-6.3,3.2-11.6,4.8-16.8c8.9-29,17.7-57.9,26.7-86.8
		c1.2-3.7,0.2-5.5-2.7-7.7C1216.8,237.9,1189.4,216.3,1160.9,194z"/>
	<path d="M505,443.8c0,10.4-0.2,19.3,0.1,28.2c0.1,3.3-0.9,4.1-4.1,4.1c-36.8-0.1-73.6-0.1-110.4,0c-3.4,0-4-1-4-4.2
		c0.1-45,0.1-90,0-134.9c0-3.3,1-4.1,4.1-4.1c13.7,0.2,27.3,0.3,41-0.1c4.5-0.1,5,1.4,4.9,5.3c-0.2,33.2,0,66.3-0.2,99.5
		c0,4.4,1,5.5,5.4,5.5c20.6-0.3,41.3-0.1,62.5-0.1c-3.5-7.7-6.5-15.2-7.8-23.2c-6.1-38.2,8.7-76.3,56.2-85.9
		c25.4-5.1,50.5-4.7,74.6,5.6c22.6,9.6,35.4,27,38.8,51.3c2.7,19.4,0.9,38.1-10.1,54.9c-10.9,16.7-27,25.4-46.1,29.4
		c-24.1,5-48,4.5-71.4-4.1C524.9,466,513.8,457.3,505,443.8z M547.1,404.9c-0.5,5.3,0.4,10.8,2,16.3c4.2,14.2,15.3,23.5,28.4,23.9
		c19,0.5,30.1-6.3,35.5-22.4c4.3-12.8,4.1-25.7-0.8-38.4c-4.9-12.8-15.3-19.9-29.1-20.2c-16-0.3-26.7,6-32.4,19.1
		C547.8,390,546.6,397.1,547.1,404.9z"/>
	<path d="M355.8,354.8c-12-6.2-24.3-9.9-37.1-11.2c-21.5-2.2-42.7-1-62.7,8.3c-17,7.9-26,21.4-25.8,40.2c0.2,18.7,9.5,32,26.3,40.1
		c15.1,7.2,31,9,47.5,6.9c3-0.4,4.4-1.7,4.2-5.1c-0.3-6-0.3-12,0-18c0.1-3-0.6-4-3.8-3.9c-8,0.3-16,0-24,0.1
		c-2.6,0.1-3.4-0.6-3.3-3.3c0.2-10.5,0.1-21,0-31.5c0-2.4,0.4-3.5,3.2-3.5c27.5,0.1,55,0.1,82.5,0c3,0,3.4,1.1,3.4,3.7
		c-0.1,30-0.1,60,0,90c0,2.8-0.6,4-3.6,4.6c-24.5,5.1-49.2,7.3-74.1,7.3c-26.4,0-52.1-3.9-75.9-16.4c-23.8-12.5-39.8-31.3-43.1-58.3
		c-4.7-38.9,8.7-71.2,49.8-88.8c16.9-7.2,34.7-10.4,52.9-12c17.5-1.5,34.9-1.3,52.3,0.2c11.4,1,22.6,2.8,33.6,6
		c2.5,0.7,3.4,1.9,3,4.6C359.1,327.8,357.5,341,355.8,354.8z"/>
	<path d="M988.8,289c8.4-27.7,16.6-54.5,24.7-81.3c3.1-10.3,3.2-10.4-5-16.8c-20.9-16.5-41.9-32.8-62.8-49.3
		c-0.5-0.4-0.9-0.8-2.2-1.9c2.6-0.1,4.3-0.3,6-0.3c28.2,0,56.3-0.1,84.5,0.1c3.6,0,5.1-1,6.2-4.4c10-31.5,20.1-63,30.4-95.3
		c5.3,16.4,10.5,32.1,15.5,47.8c5.1,16,10.2,32,15.1,48c0.9,3,2.4,3.9,5.6,3.9c27.5-0.2,55-0.1,82.5-0.1c1.8,0,3.6,0,6.9,0
		c-7.5,5.7-13.8,10.6-20.2,15.5c-17.3,13.2-34.6,26.5-51.9,39.6c-2.6,2-3.3,3.5-2.1,6.9c10.3,28.3,20.4,56.8,30.5,85.2
		c0.2,0.6,0.6,1.2,0.2,1.9c-26.1-17-52.3-33.9-78.4-51c-2.7-1.8-4.4-2-7.2-0.1C1041.3,254.6,1015.5,271.5,988.8,289z"/>
	<path d="M839.6,17.1c4.9,15.3,9.7,30,14.4,44.7c4.5,13.9,9,27.9,13.2,41.9c1.2,3.8,2.7,5.4,7.1,5.4c24.8-0.3,49.6-0.1,74.5-0.1
		c1.6,0,3.2,0,6.2,0c-10.3,7.9-19.6,15-28.8,22.1c-12.4,9.5-24.7,19.1-37.3,28.4c-3,2.2-3,3.9-1.9,6.9c9.3,25.5,18.4,51.1,27.6,76.7
		c0.2,0.6,0.3,1.2,0.8,3c-8-5.2-15.3-9.8-22.5-14.5c-16.7-10.8-33.4-21.6-50-32.6c-2.4-1.6-3.9-1.7-6.4,0
		c-23.6,15.7-47.4,31.2-71.9,47.4c3-10.1,5.7-19.4,8.5-28.7c5.1-16.7,9.9-33.5,15.4-50c1.5-4.5,0.4-6.7-3-9.3
		c-20.8-16.1-41.4-32.3-62.2-48.5c1.4-1.5,3.2-0.8,4.7-0.8c26-0.1,52-0.1,78,0c3,0,4.5-0.5,5.6-3.9
		C820.6,75.9,830.1,46.8,839.6,17.1z"/>
	<path d="M627.6,16.4C634.8,39,642,61.4,649,83.9c0.9,2.9,2.6,3.1,5.1,3.1c21-0.1,42,0,64.3,0c-5.6,4.3-10.2,8-15,11.6
		c-12.3,9.4-24.5,18.8-36.9,28.1c-2.5,1.9-3.1,3.3-1.9,6.4c7.1,19.2,13.8,38.4,20.7,57.7c0.5,1.3,0.9,2.6,1.6,4.8
		c-19-12.4-37.3-24.1-55.3-36.1c-3.4-2.3-5.7-2.1-9.1,0.1c-17.1,11.5-34.3,22.7-51.5,34c-0.8,0.5-1.6,1-3.1,1.8
		c6.3-20.7,12.1-40.7,18.5-60.6c1.4-4.4,0.6-6.6-2.9-9.3c-16.2-12.4-32.2-25.1-48.4-37.8c1.3-1.4,2.9-0.7,4.2-0.7
		c19.7-0.1,39.3-0.2,59,0.1c4.4,0.1,6.3-1.1,7.6-5.4c6.5-21.1,13.3-42.1,20-63.2C626.2,17.7,626.4,16.9,627.6,16.4z"/>
	<path d="M534.6,110.9c-14.4,11-27.7,21.2-41.2,31.3c-2.6,2-3.3,3.6-2.1,6.9c6.1,16.3,11.9,32.8,18.2,50.3
		c-11.9-7.8-22.9-14.9-33.9-22.1c-3.9-2.5-7.9-4.9-11.6-7.6c-2.5-1.8-4.4-1.8-7,0c-14.7,9.9-29.6,19.6-45.1,29.8
		c5-16.5,9.7-32.4,14.9-48.2c1.7-5,0.5-7.6-3.5-10.6c-11.8-8.7-23.1-17.9-34.6-27c-0.8-0.7-2-1.1-2.3-2.7c16.7,0,33.3-0.2,49.9,0.1
		c4,0.1,5.7-1.1,6.9-4.9c5.1-16.7,10.6-33.3,15.9-49.9c0.4-1.2,0.9-2.5,1.5-4.3c6,18.6,11.9,36.5,17.4,54.5c1.2,3.8,2.9,4.7,6.6,4.6
		C500.7,110.8,517,110.9,534.6,110.9z"/>
	<path d="M333.7,535c6.5-5.1,11.7-9.8,18.7-11.5c2-0.5,4-0.6,5.9-0.4c5.4,0.5,6.8,2.4,6.7,9.7c5.4-3.8,10.3-8,16.9-9.3
		c2.2-0.4,4.3-0.6,6.4-0.4c7,0.6,9.2,4.5,6.1,10.8c-2.6,5.2-5.5,10.2-8.2,15.3c-2.4,4.6-1.7,5.7,3.7,5.8c1.8,0,3.7,0,5.5,0
		c3.4,0,5.4-0.8,5.2-5.1c-0.2-4.4,2.4-8.1,5.2-11.5c7.6-9.1,17.4-14.2,29.1-15.3c1.9-0.2,4,0.2,5.9,0.4c3.6,0.3,6.8,2.9,10.9-0.9
		c2.6-2.4,8-0.7,11.7,1.6c2.4,1.5,0.9,3.1-0.1,4.6c-4.2,6-8.6,11.8-11.6,18.5c-3.1,7-2.6,7.9,5,7.7c2,0,4,0,5.9-0.6
		c1.6-0.5,2.6-0.9,2.6-2.9c0.1-13.9,9.7-20.3,20.5-25.5c7.3-3.5,15.3-4.3,23.3-2.3c2.6,0.6,3.6-0.6,4.5-2.5
		c2.7-5.3,5.4-10.6,8.3-15.8c3.4-6.1,9.3-8.1,16.2-6c4.4,1.3,3.8,3.6,1.8,6.6c-7.1,10.6-14.2,21.2-20.2,32.5
		c-1.8,3.3-3.5,6.8-4.8,10.3c-1.5,4.1-0.2,5.8,4.3,6c4.8,0.3,9.6,0.1,14.5-1.5c-0.7-2-1.6-3.9-2-5.9c-1.5-7.8,1-14,7.5-18.6
		c7.4-5.3,15.8-7,24.6-5.8c8.8,1.2,12.3,8.9,7.8,16.6c-3.5,5.9-9.1,9.5-14.8,13.5c3.7,2.8,7.8,1.2,11.5,2c-2.3,7.6-2.3,7.4-10.2,7
		c-4.7-0.2-9.1-1.1-13.5-2.6c-4.5-1.6-8.6,1.3-12.9,1.9c-7.8,1.1-15.6,1.2-23.4,0.4c-5-0.5-6.7-2.5-8-8.1
		c-7.2,6.1-15.2,10.5-24.6,8.1c-7.1-1.8-13.5,0.2-20.2,0.9c-5,0.5-10-0.3-14.8-1.4c-3.5-0.8-5.1-3.5-4.8-7.9
		c-5.8,4.6-11.4,8.3-18.3,9.1c-2.2,0.3-4.5,0.9-6.4,0c-5.9-2.7-11.6-0.8-17.5-0.1c-6.3,0.8-12.6,0.1-18.7-1.5
		c-6.6-1.7-8.1-5.6-5.1-11.7c1.7-3.4,3.9-6.5,5.8-9.8c1-1.7,2.5-3.2,2-5.6c-1.8-0.3-3,0.8-4.2,1.8c-7.2,5.5-14.1,11.4-18.4,19.4
		c-3.5,6.5-8.4,8.1-15.3,7.1c-4.2-0.6-4.1-2.4-2.4-5.3c3.4-5.7,6.8-11.4,10.1-17.1c0.4-0.7,0.8-1.5,1.2-2.2c0.7-1.3,2-2.9,0.9-4
		c-1.5-1.5-3,0.3-4.3,1.1c-8.5,5.6-15.3,12.6-20.3,21.5c-3.2,5.7-7.2,8-13.4,5.9c-4-1.4-7.3,0.1-10.9,0c-1.6,0-4.5,1.4-4.4-0.8
		c0.1-2.1,0.2-5.8,3.7-6.2c8.6-0.8,13-6.5,16-13.7c1.7-4.1,3.1-8.4,4.8-12.5c2.4-5.8,10.6-8.7,15.9-5.7c1.7,0.9,1.6,2.3,0.8,3.8
		C336.6,529.2,335.5,531.5,333.7,535z M420.5,554c0.5-0.1,1.3-0.3,2.1-0.5c9.7-3.3,15.3-11.2,20.8-19.1c1.8-2.6-1-2.3-2.5-2.4
		c-8.8-0.5-21.9,8.9-24.4,17.4C415.5,552.9,417.1,554,420.5,554z M507.8,532c-11.8-0.5-18.8,5.8-24.9,13.8c-1.5,1.9-3.2,4.5-1.3,6.8
		c2,2.4,5,1.2,7.3,0C497.4,548,502.4,540.3,507.8,532z M547.5,543.5c0.4,1.3,0.2,3,1.6,3.9c1.6,0.9,2.7-0.6,3.8-1.3
		c3.8-2.2,6.9-5.2,8.9-9.1c0.7-1.4,2-3,0.3-4.5c-1.3-1.2-2.9-1.5-4.6-1.2C552.3,532.2,547.3,538.2,547.5,543.5z"/>
	<path d="M289.7,226.8c3.9-12.9,7.5-25.9,11.8-38.6c1.7-5,1.1-7.8-3.4-11.1c-10.7-7.8-20.8-16.2-32.3-25.2c15.5,0,29.6-0.2,43.7,0.1
		c4.1,0.1,5.6-1.3,6.7-5.1c4.6-14.9,9.5-29.7,14.8-46c2.9,9,5.5,16.7,8,24.4c2.4,7.5,4.9,15.1,7.1,22.7c0.9,3,2.4,4,5.6,4
		c14-0.2,28-0.1,42.2-0.1c-0.3,1.8-1.7,2.4-2.8,3.2c-10.3,7.9-20.5,15.8-31,23.5c-2.7,2-3.4,3.7-2.1,7c5.2,13.7,10,27.5,15,41.5
		c-1.1,1.1-1.7-0.2-2.3-0.5c-12-7.7-24-15.4-35.8-23.4c-2.9-2-5-1.8-7.8,0.1c-12.1,8.2-24.3,16.1-36.5,24.1
		C290.3,227.2,290,227,289.7,226.8z"/>
	<path class="st0" d="M156.3,195c15,0,28.8-0.1,42.6,0.1c3.1,0,4.5-0.6,5.5-4c4.3-14.3,9.1-28.5,14.1-43.8
		c4.3,13.4,8.4,25.7,12.3,38.1c3.1,9.6,3,9.6,12.7,9.6c11.6,0,23.2,0,36.1,0c-11.6,8.8-21.9,17-32.6,24.8c-3.6,2.6-4.2,4.8-2.6,8.9
		c4.9,12.5,9.2,25.3,14.1,39c-12.8-8.3-24.6-15.9-36.3-23.7c-2.8-1.9-4.7-1.9-7.4,0c-11.6,7.9-23.4,15.5-35.8,23.7
		c4.2-14,8.1-27.2,12.3-40.4c1-3.1,0.4-4.7-2.1-6.6C178.4,212.5,167.9,204.1,156.3,195z"/>
	<path d="M68.4,251c12.2,0,23.3-0.1,34.4,0.1c3.2,0.1,4.4-1.1,5.3-4c3.5-11.6,7.4-23.2,11.4-35.6c4,12.3,8,23.7,11.3,35.3
		c1.1,3.7,2.7,4.4,6.1,4.4c10.5-0.2,21-0.1,31.6-0.1c0.2,1.8-1.4,2.1-2.3,2.8c-7.9,6.1-15.7,12.3-23.8,18.1
		c-2.6,1.9-2.6,3.4-1.6,6.1c3.9,10.4,7.5,21,11.7,32.8c-10.2-6.6-19.5-12.4-28.5-18.6c-3.2-2.2-5.4-2.5-8.7-0.1
		c-9,6.4-18.4,12.2-28.4,18.8c3.6-11.6,6.7-22.3,10.2-32.9c0.9-2.9,0.3-4.3-2-6.1C86.3,265.3,77.8,258.4,68.4,251z"/>
	<path d="M837.9,555.5c-2.3,8.3-2.3,8.3-10.3,7.1c-3.3-0.5-6.6-0.4-9.8-1.5c-6.9-2.3-9-6.3-6.8-13.3c0.8-2.6,1.8-5.2,2.9-8.5
		c-4.6,4.4-8.5,8.7-13,12.3c-9.8,7.9-20.7,13.2-33.9,10.5c-6.6-1.3-8.8-5.7-5.8-11.8c4.9-9.8,10.1-19.3,15.2-28.9
		c0.4-0.7,1-1.4,1.2-2.2c0.6-2.8,3.9-5.4,1.7-8.3c-2.5-3.2-6.6-2.4-9.8-1.6c-5.7,1.4-9.9,5-11.8,11c-0.8,2.6-0.9,4.9,1.1,6.9
		c2.4,2.5,0.8,3.3-1.5,4c-4.3,1.3-8.3,0.6-11.6-2.4c-3.2-3-3.5-7-2.4-11c2.9-10.5,11.6-14.5,20.8-17.2c8.2-2.4,16.7-2.9,24.9,0.4
		c7.3,2.9,9.3,7.4,7.1,15c-2.7,9.5-8.7,17.4-12.7,26.2c-0.5,1-1.1,2-1.6,3.1c-1,2-3.4,4.8-2.1,6.1c2.1,2,5.1-0.2,7.2-1.5
		c17.6-11.1,30.3-26.6,39.1-45.3c3-6.4,10.4-8.8,16.5-5c2.7,1.7,1.6,3.9,0.7,6.1c-5.2,13.9-10.4,27.8-15.3,41.8
		c-2,5.8-0.7,7.3,5.5,7.6C835,555.1,836.5,554.6,837.9,555.5z"/>
	<path d="M60.5,288.3c4,12.3,7.7,23.3,11.1,34.5c0.9,3,2.1,3.9,5.1,3.8c10.1-0.2,20.3-0.1,32-0.1c-5.4,4.2-9.8,7.6-14.1,11
		c-4.1,3.1-8.1,6.4-12.3,9.3c-1.9,1.4-2.4,2.4-1.5,4.9c3.9,10.3,7.4,20.7,11.5,32.2c-4.8-3.1-8.9-5.6-12.9-8.2
		c-5.1-3.3-10.4-6.6-15.4-10.2c-2.6-1.9-4.4-1.7-7,0.1c-8.7,6-17.7,11.7-27,17.9c0.2-5.2,2.3-9.4,3.5-13.7c1.6-5.7,3.4-11.4,5.3-17
		c1-2.8,0.6-4.7-2-6.6c-8.1-6-15.9-12.4-23.7-19.7c2.9,0,5.7,0,8.6,0c7.3,0,14.7-0.2,22,0.1c3.6,0.1,5.3-0.9,6.3-4.4
		C53.1,311.2,56.7,300.2,60.5,288.3z"/>
	<path d="M79.6,475.3c-9.3-6-17.7-11.1-25.7-16.7c-3.2-2.2-5.2-1.8-8.2,0.2c-7.9,5.5-16,10.7-24.9,16.5c3-10,5.5-19.2,8.5-28.2
		c1.2-3.4,0.8-5.3-2.1-7.4c-7.4-5.5-14.6-11.3-22.8-17.8c10.8,0,20.3-0.2,29.9,0.1c3.3,0.1,4.7-1,5.6-4c3.1-10.1,6.3-20.1,9.5-30.2
		c2.4,0.1,1.8,2.2,2.2,3.3c3,8.7,5.8,17.5,8.4,26.4c0.9,3.1,2.2,4.5,5.8,4.4c9.3-0.3,18.6-0.1,29.1-0.1c-8.5,6.5-15.9,12.5-23.6,18
		c-3,2.1-3.1,3.9-1.9,6.9C72.7,455.8,75.9,465,79.6,475.3z"/>
	<path d="M1000.6,555.3c-2.5,2.7-1.3,7.6-5.5,7.5c-6.2-0.1-12.8,0.5-17.8-4.6c-3-3-0.1-6.2,0.4-9.8c-7.4,5.5-14.4,10.9-23.2,13
		c-5,1.2-9.9,2.1-15.2,0.7c-9.2-2.3-13.5-9-11-18.2c2.6-9.2,8.9-15.8,16-21.7c16.4-13.4,35.6-20.7,56.4-24.2c3.3-0.5,5.8,1.1,8,3.2
		c1.2,1.1,1.9,2.6,1.2,4c-0.6,1.2-2,1.6-3.4,1.6c-17.7,0.6-31.8,9.1-45.1,19.8c-5.2,4.2-10,8.8-13.6,14.5c-1.8,2.8-4.4,6-1.6,9.5
		c2.6,3.2,6.2,2.5,9.7,1.6c6.8-1.7,12.2-5.8,17.3-10.3c9.1-8,16.3-17.5,22.4-27.9c3.7-6.4,6.7-7.5,13.5-5c3.1,1.1,4.6,2.5,2.2,6.1
		c-5.3,8-10.1,16.4-15,24.6c-0.9,1.6-1.7,3.2-2.5,4.9C989.3,554.3,989.4,554.4,1000.6,555.3z"/>
	<path d="M910.6,554.6c2.6,0.3,4.5,0.4,6.4,0.6c-0.8,5.4-3.2,8.2-8.9,6.8c-3.9-0.9-7.2,0.8-10.7,2.4c-15.6,7.1-31.7,7.6-47.8,2
		c-4.5-1.5-8.5-4-8.7-9.7c-0.2-5.8,3.8-9.3,11.3-9.8c10.9-0.8,21.4,1.8,32,3.5c2.4,0.4,4.9,0.9,7.3,1.4c3.2,0.8,5.5-0.1,6.8-3.2
		c1.3-3.2,1.3-6.2-1.7-8.5c-3-2.4-6.7-3.6-10.2-5c-3.8-1.6-7.7-2.9-11.2-5.1c-9-5.7-9.9-15.8-2-23c5.1-4.6,11.5-6.5,18-7.8
		c8.5-1.8,17.1-1.7,25.5,0.8c2.4,0.7,4.6,1.6,6.6,3.3c2.5,2.2,3.7,4.9,2.3,8c-1.4,3.1-4.3,3.8-7.5,3.7c-1,0-1.8,0-2.2-1.3
		c-1.3-4.3-4.9-5.2-8.8-6c-7-1.4-13.6-0.3-19.8,2.7c-5.7,2.8-5.8,7.6-0.5,11.1c3.9,2.6,8.5,3.6,12.7,5.5c6.1,2.7,12,5.6,14.6,12.5
		C916.2,545.1,914,549.5,910.6,554.6z M884.5,559.3c-8.7-2.2-17.5-4.1-26.6-4.3c-1.4,0-3.7-1.2-4,1.4c-0.2,2.1,2,2.5,3.5,3
		C866.4,562.3,875.4,562.2,884.5,559.3z"/>
	<path d="M669.5,535.3c7.9-5.7,14.6-11,23.6-11.9c2.6-0.2,5.1,0,7.3,0.9c2.9,1.3,4.4,3.6,3,7.3c-2.2,5.8-5.8,10.8-8.5,16.2
		c-3.3,6.4-3,7,4.4,7.2c0.5,0,1,0.1,1.5,0.2c-2.3,7.6-2.3,7.6-10.6,7c-14.2-1-16.7-5.8-9.5-17.9c1.9-3.1,3.7-6.3,5.6-9.6
		c-2.4-1.3-3.9,0.2-5.5,1.1c-8.2,4.9-14.3,11.9-18.9,20.1c-3,5.3-7.4,7.6-12.7,6.4c-4.9-1.1-9.3,0.1-14,0.1c-6.5,0-13.4,1.4-19-3.6
		c-1.6-1.4-2.6,0.2-3.5,0.6c-4.5,2.5-9.2,3.3-14.5,2.9c1.1-4,1.9-7.2,7.2-7.8c5.4-0.6,8.7-5.2,11.4-9.6c2.9-4.6,4.5-9.8,6.4-15
		c2-5.5,11.2-9.1,16.4-6.5c3,1.5,1.8,3.7,0.7,5.9c-3.4,6.8-7,13.5-10.2,20.3c-2.1,4.3-1.3,5.1,3.3,5.5c7.1,0.6,12.1-2.6,15.8-8.3
		c3.4-5,5.2-10.7,7.1-16.3c2.6-7.3,8.6-10.1,15.8-7.4c2.4,0.9,2.2,2.4,1.2,4.3C672.2,529.6,671.1,532,669.5,535.3z"/>
	<path d="M134.3,495c-7.4,5.6-13.6,10.6-20,15.2c-2.8,2-3.3,3.7-2.1,6.8c2.7,6.6,4.9,13.3,7.3,20c0.4,1,0.7,1.8,0.2,3.1
		c-7-4.5-14-8.9-20.8-13.5c-2.5-1.7-4.1-1.7-6.6,0c-6.8,4.7-13.8,9.1-21.7,14.3c2.7-8.8,4.8-16.6,7.4-24.3c1-2.9,0.5-4.4-1.9-6.2
		c-6.4-4.7-12.6-9.7-19.9-15.5c9.1,0,17.1-0.2,25.1,0.1c3.4,0.1,4.9-0.8,5.8-4.2c2.5-8.5,5.4-16.9,8.4-26c2.9,9,5.9,17.4,8.3,25.9
		c1,3.6,2.6,4.5,6.1,4.3C117.7,494.8,125.3,495,134.3,495z"/>
	<path d="M185.7,547.9c-7,5.4-12.8,10.1-18.9,14.4c-2.7,1.9-3,3.6-1.8,6.6c2.8,7.2,5.2,14.5,8.2,22.8c-7.4-4.8-14.2-9.1-20.7-13.6
		c-2.5-1.7-4.3-1.9-6.9,0c-6.4,4.6-13.1,8.8-20.4,13.6c2.5-8.6,4.6-16.4,7.2-23.9c0.8-2.5,0.3-3.4-1.6-4.8c-6.1-4.6-11.9-9.4-19-15
		c8.6,0,16-0.3,23.3,0.1c3.8,0.2,5.1-1.4,6.1-4.6c2.3-7.8,4.9-15.5,8.4-23.2c2.5,7.9,5.2,15.8,7.5,23.8c0.9,3.1,2.3,4.1,5.5,4
		C169.8,547.7,177,547.9,185.7,547.9z"/>
	<path class="st0" d="M1268.6,462.8c0.9-3.1,2.1-6.2,2.5-9.4c0.7-5.6,4.7-4.4,8-4.3c4.3,0.1,2.1,3.5,2.2,5.2c0.3,6,0,12,0.2,18
		c0.1,2.6-1.1,2.9-3.2,2.9c-2.3,0-2.8-0.8-2.7-2.9c0.1-3.3,0-6.5-0.4-9.8c-2.4,3.1-2.8,6.8-3.7,10.3c-0.6,2.1-1.5,2.4-3.4,2.5
		c-1.9,0-3.1-0.4-3.6-2.4c-0.8-3.5-1.8-7-2.9-11.1c-1.7,3.7-0.9,7.1-1,10.3c0,2.3-0.5,3.2-3,3.2c-2.6,0-3-1-3-3.2
		c0.1-6.5,0-13,0.1-19.5c0-1.4-0.9-4,2-3.4c2.7,0.5,6.5-2.5,7.9,2.3c1.1,3.7,2,7.5,3,11.3C1267.9,462.7,1268.3,462.7,1268.6,462.8z"
		/>
	<path d="M1228,464.8c0-2.3-0.1-4.7,0-7c0.1-2.1-0.1-3.7-2.8-3.3c-2.8,0.3-2.1-1.8-2.2-3.3c-0.2-1.9,0.8-2.2,2.4-2.2
		c3.8,0.1,7.7,0,11.5,0c1.4,0,2.8-0.2,2.6,1.9c-0.1,1.6,0.5,3.7-2.2,3.5c-3.4-0.3-3.2,1.9-3.2,4.2c0.1,4.5-0.1,9,0.1,13.5
		c0.1,2.3-0.5,3.2-3,3.1c-2.2-0.1-3.5-0.3-3.2-2.9C1228.2,469.8,1228,467.3,1228,464.8z"/>
	<path class="st0" d="M641.5,499c5,0.1,8,2.5,7.9,6.3c-0.1,4.4-4.6,7.7-10.4,7.7c-5.2,0-8-2-8-6C630.9,502.3,635.4,498.9,641.5,499z
		"/>
	<path d="M1246.1,472.1c0.2,1.9,0,3.1-2.4,3.1c-2.8,0.1-2.8-1.3-2.8-3.3c0-1.8,0-3,2.5-3.1C1246.1,468.7,1246.4,470,1246.1,472.1z"
		/>
	<path d="M1291.1,472.2c0.3,2-0.2,2.9-2.5,3c-2.9,0.1-2.7-1.5-2.7-3.4c0-1.9,0.2-2.9,2.6-3C1291.3,468.7,1291.3,470.2,1291.1,472.2z
		"/>
</g>
</svg>
